<svg id="favicon" xmlns="http://www.w3.org/2000/svg" viewBox="0 0 96 96">
    <style>
    path {
        fill: black;
    }
    @media (prefers-color-scheme: dark) {
        path {
            fill: white;
        }
    }
    </style>
    <path d="M58.59,28.01c1.41,.38,3.07,.7,4.59,.89,1.01,.12,3.32,.15,4.19,.05,3.57-.42,5.57-1.89,6.29-4.68,.46-1.78,.17-3.65-.89-5.79-.61-1.23-1.08-1.97-2.87-4.56-1.49-2.16-2.23-3.29-2.85-4.37-1.74-3.04-2.63-5.87-2.76-8.77L64.25,0l-.14,.17c-.53,.63-1.36,2.06-1.8,3.06-1.55,3.57-1.74,7.81-.55,12.38,.67,2.58,1.94,5.47,3.32,7.53,.19,.29,.35,.54,.35,.56,0,.01-.18-.07-.39-.19-1.2-.65-2.04-1.64-2.29-2.68-.04-.15-.09-.29-.12-.31-.11-.08-.92-.3-1.49-.43-1.72-.35-3.2-.24-4.38,.33-.85,.42-1.57,1.1-1.79,1.72-.26,.72-.37,1.27-.39,2.03-.04,1.2,.17,1.81,.84,2.49,.58,.59,1.09,.8,3.18,1.36Z"/><path d="M26.87,31.79l.54-.04,.75-1.07c.41-.59,.79-1.14,.86-1.23,.18-.26,2.53-3.57,3.61-5.1,.57-.8,1.04-1.47,1.05-1.49,0-.02-.27-.02-.61,0-3.79,.21-6.06,.16-7.96-.16-4.93-.85-8.06-3.9-10.4-10.18-.57-1.54-1.31-4.04-1.74-5.94-.02-.08-.04-.14-.05-.14-.05,0-.42,.96-.74,1.92-2.53,7.54-1.33,14.97,3.14,19.45,2.61,2.61,6.05,3.99,10.02,4.01,.54,0,1.23-.01,1.53-.04Z"/><path d="M79.74,35.54c-3.16-3.16-7.56-5.07-12.58-5.44-1.7-.13-2.33-.12-5.02,.05-3.64,.23-6.96-.76-8.51-2.55-.52-.6-.77-1.04-.98-1.74-.12-.39-.14-.54-.14-1.15,0-.62,.02-.77,.14-1.21,.24-.86,.68-1.7,1.32-2.49l.28-.35-.14-.04c-.44-.11-2.54-.32-3.68-.36-3.23-.12-6.64,.23-10.05,1.04-1.15,.27-2.87,.77-3.72,1.08-.28,.1-.6,.22-.72,.26-.25,.09-.57,.44-1.7,1.84-1.98,2.46-3.5,4.74-4.57,6.84-.69,1.35-.98,2.11-1.52,3.99-1.13,3.92-2.1,6.53-3.32,8.97-1.01,2.01-2.25,3.86-3.55,5.27-.28,.3-.45,.53-.45,.6,0,.21,.71,3.67,1.04,5.01,.48,2.03,.97,3.64,1.44,4.82,.34,.84,.36,.87,.62,.83,1.27-.21,2.01-.28,3.36-.33,2.85-.11,5.52,.19,8.01,.89l.64,.18,.88-.46c2.35-1.21,4.66-2.1,6.96-2.68,1.52-.38,2.47-.56,4.05-.73,.92-.1,3.67-.09,4.49,.03,.35,.05,.65,.09,.66,.09,.01,0,.05-.13,.09-.29,.53-2.39,1.92-5.67,3.57-8.44,.74-1.24,2.37-3.61,2.44-3.55,.01,.02-.02,.11-.06,.22-.14,.34-1.31,4.08-1.86,5.92-1.24,4.14-1.86,6.67-2.09,8.48l-.03,.23-.52-.09c-.97-.17-1.77-.22-3.12-.22-4.06,.01-8,1.06-10.71,2.87-.35,.23-.62,.43-.62,.45,.01,.02,.35,.26,.77,.54,3.25,2.17,5.68,5.4,7.19,9.56,.89,2.45,1.5,5.47,1.71,8.46l.06,.88,.58,.38c2.24,1.49,4.12,3.84,5.78,7.18,.8,1.64,1.42,3.17,1.9,4.78,.13,.43,.24,.82,.25,.85,.05,.15,2.46-1.36,4.1-2.56,.36-.26,1.03-.78,1.49-1.15,3.53-2.84,6.22-6,7.81-9.17,1.33-2.65,1.87-5.06,1.87-8.32,0-2.8-.46-5.12-1.45-7.3-.68-1.49-1.52-2.69-2.69-3.85-1.25-1.24-2.55-2.1-4.33-2.88-.71-.32-2.31-.83-3.2-1.03-.45-.1-.87-.2-.94-.22-.5-.13,3.13-.28,4.29-.17,6.88,.62,11.23,5.2,12.98,13.67l.07,.33,.84-1.7c3.63-7.32,5.56-13.77,5.91-19.82,.39-6.69-1.49-12.44-5.33-16.3Z"/>
</svg>